<svg xmlns="http://www.w3.org/2000/svg" xmlns:xlink="http://www.w3.org/1999/xlink" version="1.1" width="3162.1621621621625"
height="1092.5412871654287" viewBox="0 0 3162.1621621621625 1092.5412871654287">

	<g transform="scale(8.108108108108109) translate(10, 10)">
		<defs id="SvgjsDefs1001"></defs><g id="SvgjsG1007" featureKey="symbolFeature-0" transform="matrix(1.2508912476073146,0,0,1.2508912476073146,-13.894899730289938,-5.172435595162531)" fill="#000000"><path xmlns="http://www.w3.org/2000/svg" d="M51.58,5.867l-1-1.732L11.108,26.924v46.154l9.661,5.578L60.74,55.578V44.424l-7.66-4.423l4.062-2.345l7.661,4.423v15.846  L26.331,80.135l1,1.732l39.472-22.789V40.924l-7.66-4.423l4.062-2.345l7.66,4.422v22.846L32.394,83.635l1,1.732l39.471-22.789  V37.424l-7.66-4.423l4.062-2.345l7.66,4.422v29.846L38.456,87.135l1,1.732l39.471-22.789V33.924l-7.66-4.423l4.062-2.345  l7.661,4.422v36.846L44.518,90.635l1,1.732l39.472-22.789V30.424l-7.66-4.423l4.062-2.345l7.66,4.422v43.846L50.58,94.135l1,1.732  l39.471-22.789V26.924l-9.66-5.578L41.42,44.424v11.154l7.66,4.423l-4.062,2.345l-7.661-4.423V42.078l38.472-22.211l-1-1.732  L35.357,40.924v18.154l7.66,4.423l-4.062,2.345l-7.661-4.422V38.578l26.348-15.211v0l12.124-7l-1-1.732L29.295,37.424v25.154  l7.661,4.423l-4.062,2.345l-7.66-4.422V35.078l38.471-22.211l-1-1.732L23.233,33.924v32.154l7.66,4.423l-4.062,2.345l-7.661-4.422  V31.578L57.643,9.367l-1-1.732L17.171,30.424v39.154l7.66,4.423l-4.062,2.345l-7.661-4.422V28.078L51.58,5.867z M43.42,54.424  v-8.846l7.66-4.422l7.66,4.422v8.846l-7.66,4.422L43.42,54.424z"></path></g><g id="SvgjsG1008" featureKey="nameFeature-0" transform="matrix(2.0233084291283556,0,0,2.0233084291283556,115.38685732186899,2.002907764909189)" fill="#000000"><path d="M10.88 40 l-8.6 0 l0 -24.48 l8.6 0 c7.48 0 12.6 4.88 12.6 12.24 c0 7.56 -5.4 12.24 -12.6 12.24 z M8.28 21.08 l0 13.36 l2.6 0 c4.24 0 6.6 -2.68 6.6 -6.68 c0 -0.92 -0.12 -1.76 -0.36 -2.6 c-1.04 -2.92 -3.32 -4.08 -6.24 -4.08 l-2.6 0 z M27.16 15.52 l6 0 l0 24.48 l-6 0 l0 -24.48 z M37.68 15.52 l18.2 0 l0 5.56 l-12.2 0 l0 3.92 l9.8 0 l0 5.56 l-9.8 0 l0 9.44 l-6 0 l0 -24.48 z M59.28 15.52 l18.2 0 l0 5.56 l-12.2 0 l0 3.92 l9.8 0 l0 5.56 l-9.8 0 l0 3.88 l12.2 0 l0 5.56 l-18.2 0 l0 -24.48 z M79.68 39.4 l0 -5.64 c0.48 0.12 1.08 0.24 1.76 0.32 c0.68 0.12 1.4 0.2 2.16 0.24 s1.52 0.08 2.32 0.12 s1.56 0.08 2.24 0.08 c1.88 0 3.2 -0.12 4 -0.32 c0.76 -0.2 1.16 -0.56 1.16 -1.12 c0 -0.48 -0.36 -0.84 -0.72 -1.12 c-1.32 -0.88 -2.88 -1.24 -4.44 -1.6 c-4.4 -0.88 -8.44 -2.64 -8.44 -7.68 c0 -5.96 5.64 -7.36 10.48 -7.36 c2.68 0 5.4 0.28 8 0.92 l0 5.64 c-0.4 -0.12 -0.92 -0.2 -1.56 -0.32 c-0.68 -0.08 -1.36 -0.16 -2.12 -0.24 c-1.56 -0.16 -3.04 -0.24 -4.6 -0.24 c-0.88 0 -2.72 0 -3.56 0.32 c-0.56 0.2 -0.92 0.44 -0.92 1.08 c0 0.32 0.08 0.6 0.24 0.84 c0.16 0.28 0.44 0.48 0.8 0.68 c1.08 0.6 2.48 0.96 3.68 1.24 c1 0.24 2 0.52 3.04 0.8 c3.52 0.96 5.84 2.92 5.84 6.68 c0 6.2 -6.16 7.52 -11.12 7.52 c-2.72 0 -5.56 -0.2 -8.24 -0.84 z M117.52 35.04 l-9 0 l-1.76 4.96 l-6.52 0 l9.8 -24.48 l6 0 l9.8 24.48 l-6.56 0 z M110.48 29.48 l5.08 0 l-2.52 -7.12 z"></path></g>
	</g>
</svg>