<?xml version="1.0" encoding="UTF-8" standalone="no"?><!DOCTYPE svg PUBLIC "-//W3C//DTD SVG 1.1//EN" "http://www.w3.org/Graphics/SVG/1.1/DTD/svg11.dtd"><svg width="100%" height="100%" viewBox="0 0 351 351" version="1.1" xmlns="http://www.w3.org/2000/svg" xmlns:xlink="http://www.w3.org/1999/xlink" xml:space="preserve" xmlns:serif="http://www.serif.com/" style="fill-rule:evenodd;clip-rule:evenodd;stroke-linejoin:round;stroke-miterlimit:2;"><g id="SvgjsG1007"><path d="M177.305,6.617l-4.381,-6.617l-172.924,87.058l0,176.315l42.324,21.309l175.11,-88.162l0,-42.61l-33.558,-16.897l17.795,-8.958l33.562,16.897l0,60.534l-168.543,84.846l4.381,6.617l172.924,-87.058l0,-69.351l-33.558,-16.897l17.795,-8.958l33.558,16.893l0,87.275l-168.539,84.849l4.381,6.617l172.92,-87.058l0,-96.092l-33.558,-16.897l17.795,-8.958l33.558,16.893l0,114.016l-168.539,84.849l4.381,6.617l172.92,-87.058l0,-122.833l-33.558,-16.897l17.795,-8.958l33.562,16.893l0,140.757l-168.543,84.849l4.381,6.617l172.924,-87.058l0,-149.574l-33.558,-16.897l17.795,-8.958l33.558,16.893l0,167.499l-168.543,84.849l4.381,6.617l172.92,-87.058l0,-176.315l-42.32,-21.309l-175.11,88.162l0,42.61l33.558,16.897l-17.795,8.958l-33.562,-16.897l0,-60.53l168.543,-84.849l-4.381,-6.617l-172.924,87.058l-0,69.351l33.558,16.897l-17.795,8.958l-33.562,-16.893l0,-87.275l115.429,-58.108l53.114,-26.741l-4.381,-6.617l-172.92,87.058l0,96.092l33.562,16.897l-17.795,8.958l-33.558,-16.893l0,-114.016l168.539,-84.849l-4.381,-6.617l-172.924,87.058l0,122.833l33.558,16.897l-17.795,8.958l-33.562,-16.893l0,-140.757l168.548,-84.849l-4.381,-6.617l-172.924,87.058l0,149.574l33.558,16.897l-17.795,8.958l-33.562,-16.893l0,-167.499l168.543,-84.849Zm-35.748,185.495l0,-33.793l33.558,-16.893l33.558,16.893l0,33.793l-33.558,16.893l-33.558,-16.893Z" style="fill-rule:nonzero;"/></g></svg>