<?xml version="1.0" encoding="UTF-8" standalone="no"?>
<!DOCTYPE svg PUBLIC "-//W3C//DTD SVG 1.1//EN" "http://www.w3.org/Graphics/SVG/1.1/DTD/svg11.dtd">
<svg width="100%" height="100%" viewBox="0 0 800 800" version="1.1" xmlns="http://www.w3.org/2000/svg" xmlns:xlink="http://www.w3.org/1999/xlink" xml:space="preserve" xmlns:serif="http://www.serif.com/" style="fill-rule:evenodd;clip-rule:evenodd;stroke-linecap:round;stroke-linejoin:round;stroke-miterlimit:1.5;">
    <g transform="matrix(1.5625,0,0,1.5625,0,0)">
        <g>
            <path d="M472.234,0L39.778,0C17.844,0 0,17.844 0,39.778L0,472.234C0,494.161 17.844,512 39.778,512L472.234,512C494.161,512 512,494.161 512,472.234L512,39.778C512,17.844 494.16,0 472.234,0ZM506.986,472.234C506.986,500.297 480.457,507.626 472.234,507.626L39.778,506.346C14.909,506.346 5.653,480.457 5.653,472.234L5.013,39.778C5.013,31.549 13.629,3.733 39.778,3.733L472.234,3.733C482.377,3.733 508.266,8.509 508.266,39.778L506.986,472.234Z" style="fill-rule:nonzero;"/>
        </g>
    </g>
    <g transform="matrix(1.5625,0,0,1.5625,0,0)">
        <g>
            <path d="M184.253,221.199C165.067,221.199 149.458,236.813 149.458,256.007C149.458,275.201 165.067,290.815 184.253,290.815C203.446,290.815 219.061,275.201 219.061,256.007C219.061,236.813 203.447,221.199 184.253,221.199ZM184.253,265.96C178.771,265.96 174.311,261.495 174.311,256.006C174.311,250.517 178.771,246.052 184.253,246.052C189.742,246.052 194.207,250.517 194.207,256.006C194.207,261.495 189.742,265.96 184.253,265.96Z" style="fill-rule:nonzero;"/>
        </g>
    </g>
    <g transform="matrix(1.5625,0,0,1.5625,0,0)">
        <g>
            <path d="M327.747,221.199C308.554,221.199 292.938,236.813 292.938,256.007C292.938,275.201 308.552,290.815 327.747,290.815C346.939,290.815 362.555,275.201 362.555,256.007C362.555,236.813 346.94,221.199 327.747,221.199ZM327.747,265.96C322.258,265.96 317.792,261.495 317.792,256.006C317.792,250.517 322.258,246.052 327.747,246.052C333.236,246.052 337.701,250.517 337.701,256.006C337.701,261.495 333.236,265.96 327.747,265.96Z" style="fill-rule:nonzero;"/>
        </g>
    </g>
    <g transform="matrix(1.5625,0,0,1.5625,0,0)">
        <g transform="matrix(1.269508,0,0,1.269508,-52.144262,-57.264262)">
            <circle cx="245.5" cy="245.5" r="152.5" style="fill:none;stroke:black;stroke-width:3.02px;"/>
        </g>
    </g>
</svg>
